<svg width="500" height="500" viewBox="0 0 500 500" fill="none" xmlns="http://www.w3.org/2000/svg">
<g clip-path="url(#clip0_704_56)">
<path d="M432.609 232.701C429.671 229.467 426.252 226.657 422.504 224.394C422.593 224.234 422.69 224.081 422.778 223.929C433.364 205.999 438.733 188.728 438.765 172.564C438.773 158.036 434.351 145.291 426.013 135.741C422.505 131.681 418.268 128.31 413.525 125.766C425.916 103.983 432.208 83.0606 432.224 63.5254C432.232 45.7735 426.927 30.2344 416.904 18.6455C406.749 6.79004 392.031 0 376.348 0C362.158 0 348.097 5.34571 335.69 15.4502C324.822 24.2862 301.949 43.7012 272.991 68.2842L253.954 84.4405C217.196 115.612 175.061 151.224 141.272 178.952C115.252 200.318 93.6231 225.839 78.7266 252.782C62.5547 282.085 54.3516 312.278 54.3516 342.511C54.3438 371.171 61.7998 398.764 76.5029 424.511C103.053 471.076 152.861 500 206.529 500H206.586C232.389 500 257.944 493.195 280.495 480.337C310.93 462.978 332.406 433.579 339.943 399.204L381.869 366.499C403.026 350.4 419.253 333.625 430.136 316.626C440.546 300.333 445.826 284.298 445.835 268.952C445.851 254.908 441.14 242.019 432.609 232.701ZM403.275 299.476C395.377 311.844 382.375 326.065 362.568 341.129L331.355 365.48C330.303 348.882 325.76 332.237 316.981 316.851C299.973 287.027 268.81 270.285 236.787 270.293C221.305 270.293 205.574 274.21 191.192 282.412C166.673 296.402 152.885 322.028 152.908 348.361C152.9 361.09 156.127 374.043 162.885 385.866C174.449 406.139 195.654 417.543 217.428 417.528C227.965 417.535 238.672 414.864 248.447 409.277C265.334 399.654 274.844 381.981 274.82 363.851C274.837 355.078 272.598 346.154 267.966 338.015C265.142 333.072 258.841 331.337 253.897 334.171C248.952 336.988 247.219 343.288 250.045 348.232C252.878 353.199 254.202 358.536 254.202 363.85C254.187 374.869 248.48 385.535 238.232 391.363C231.625 395.134 224.507 396.9 217.428 396.9C202.773 396.892 188.559 389.275 180.79 375.647C175.855 366.987 173.535 357.629 173.535 348.36C173.543 329.146 183.535 310.51 201.408 300.333C212.62 293.937 224.772 290.927 236.786 290.911C261.698 290.935 285.856 303.889 299.074 327.068C307.293 341.49 311.177 357.116 311.177 372.582C311.169 404.606 294.499 435.673 264.7 452.663C246.28 463.161 226.288 468.121 206.528 468.137C165.613 468.114 125.894 446.805 104.2 408.723C91.7432 386.876 86.2461 364.637 86.2295 342.509C86.2295 317.189 93.5332 291.922 106.632 268.19C119.73 244.465 138.639 222.338 161.504 203.59C195.485 175.699 237.66 140.042 274.571 108.741C311.443 77.4639 343.16 50.4493 355.785 40.1846C363.193 34.1807 370.32 31.8701 376.347 31.8701C382.865 31.918 388.346 34.4219 392.76 39.4385C397.11 44.4776 400.336 52.3994 400.352 63.5079C400.368 76.0362 396.106 92.5206 384.718 111.911C373.345 131.302 354.863 153.533 326.948 177.466C322.622 181.174 322.125 187.682 325.832 192C329.54 196.319 336.049 196.824 340.367 193.116C354.1 181.343 365.729 169.865 375.592 158.734C375.729 158.638 375.905 158.606 376.041 158.501C381.916 153.685 387.342 151.976 391.572 151.976C395.889 152.032 399.179 153.541 401.949 156.639C404.67 159.761 406.869 164.873 406.885 172.547C406.902 181.326 403.827 193.358 395.344 207.715C386.862 222.082 373.025 238.728 352.029 256.713C347.71 260.42 347.205 266.93 350.913 271.247C354.621 275.573 361.13 276.079 365.456 272.37C372.334 266.464 378.49 260.66 384.101 254.946C384.43 254.762 384.807 254.705 385.128 254.473C390.039 250.845 394.59 249.545 398.387 249.537C402.729 249.57 406.236 251.135 409.045 254.16C411.814 257.21 413.941 261.938 413.965 268.937C413.981 276.643 411.197 287.092 403.275 299.476Z" fill="white"/>
<path d="M403.272 299.481C395.374 311.849 382.372 326.07 362.565 341.134L331.352 365.485C330.3 348.887 325.757 332.241 316.978 316.856C299.97 287.031 268.807 270.29 236.784 270.298C221.302 270.298 205.571 274.215 191.189 282.417C166.67 296.406 152.882 322.032 152.905 348.365C152.898 361.095 156.124 374.048 162.882 385.87C174.446 406.144 195.651 417.548 217.425 417.533C227.962 417.54 238.669 414.868 248.444 409.282C265.331 399.658 274.841 381.986 274.818 363.856C274.834 355.083 272.595 346.158 267.963 338.02C265.139 333.076 258.838 331.342 253.894 334.176C248.949 336.992 247.216 343.293 250.042 348.237C252.875 353.204 254.199 358.541 254.199 363.855C254.184 374.874 248.477 385.54 238.229 391.367C231.622 395.139 224.504 396.905 217.425 396.905C202.77 396.897 188.556 389.28 180.787 375.652C175.852 366.991 173.532 357.634 173.532 348.365C173.54 329.151 183.532 310.515 201.405 300.338C212.617 293.942 224.769 290.932 236.783 290.916C261.695 290.94 285.853 303.894 299.071 327.072C307.29 341.494 311.174 357.121 311.174 372.587C311.166 404.611 294.496 435.678 264.697 452.668C246.277 463.166 226.285 468.126 206.525 468.142C165.61 468.118 125.891 446.81 104.197 408.728C91.7402 386.881 86.2432 364.642 86.2266 342.514C86.2266 317.194 93.5303 291.927 106.629 268.195C119.727 244.47 138.636 222.343 161.501 203.595C195.483 175.704 237.657 140.047 274.568 108.746C311.44 77.4688 343.157 50.4541 355.782 40.1895C363.19 34.1856 370.317 31.875 376.344 31.875C382.862 31.9229 388.343 34.4268 392.757 39.4434C397.107 44.4824 400.333 52.4043 400.349 63.5127C400.365 76.041 396.103 92.5254 384.715 111.916C373.342 131.307 354.86 153.538 326.945 177.471C322.619 181.179 322.122 187.687 325.829 192.005C329.537 196.323 336.046 196.829 340.364 193.121C354.097 181.348 365.726 169.87 375.589 158.738C375.726 158.643 375.902 158.61 376.038 158.506C381.913 153.69 387.339 151.981 391.569 151.981C395.886 152.037 399.176 153.546 401.947 156.644C404.667 159.766 406.866 164.878 406.882 172.552C406.899 181.331 403.824 193.362 395.341 207.72C386.859 222.087 373.022 238.733 352.026 256.718C347.707 260.425 347.202 266.935 350.91 271.252C354.618 275.578 361.127 276.084 365.453 272.375C372.331 266.469 378.488 260.665 384.098 254.951C384.427 254.767 384.804 254.71 385.125 254.478C390.036 250.85 394.587 249.55 398.384 249.542C402.726 249.574 406.233 251.14 409.042 254.165C411.811 257.215 413.938 261.943 413.962 268.942C413.978 276.648 411.194 287.097 403.272 299.481Z" fill="url(#paint0_linear_704_56)"/>
</g>
<defs>
<linearGradient id="paint0_linear_704_56" x1="250.094" y1="31.875" x2="250.094" y2="468.142" gradientUnits="userSpaceOnUse">
<stop offset="0.1" stop-color="#A60BBE"/>
<stop offset="0.9" stop-color="#1F61B8"/>
</linearGradient>
<clipPath id="clip0_704_56">
<rect width="500" height="500" fill="white"/>
</clipPath>
</defs>
</svg>
