<svg width="627" height="800" viewBox="0 0 627 800" fill="none" xmlns="http://www.w3.org/2000/svg">
<path d="M605.211 372.322C600.511 367.147 595.041 362.652 589.044 359.03C589.186 358.773 589.341 358.53 589.481 358.286C606.419 329.598 615.009 301.964 615.061 276.102C615.073 252.858 607.998 232.466 594.658 217.186C589.045 210.689 582.266 205.295 574.677 201.225C594.503 166.373 604.57 132.897 604.595 101.641C604.608 73.2375 596.12 48.375 580.083 29.8328C563.836 10.8641 540.286 0 515.194 0C492.491 0 469.992 8.55313 450.141 24.7203C432.753 38.8578 396.156 69.9219 349.823 109.255L319.364 135.105C260.552 184.98 193.134 241.958 139.072 286.323C97.4406 320.508 62.8344 361.342 39 404.452C13.125 451.336 9.81296e-06 499.644 9.81296e-06 548.017C-0.0124902 593.873 11.9172 638.022 35.4422 679.217C77.9219 753.72 157.616 800 243.484 800H243.575C284.859 800 325.747 789.111 361.83 768.539C410.525 740.764 444.888 693.727 456.945 638.727L524.028 586.398C557.878 560.639 583.842 533.8 601.255 506.602C617.911 480.533 626.359 454.877 626.373 430.323C626.398 407.853 618.861 387.23 605.211 372.322ZM558.277 479.161C545.641 498.95 524.838 521.703 493.145 545.806L443.205 584.767C441.522 558.211 434.253 531.578 420.206 506.961C392.994 459.242 343.133 432.456 291.897 432.469C267.125 432.469 241.956 438.736 218.944 451.859C179.714 474.242 157.653 515.244 157.691 557.377C157.678 577.744 162.841 598.469 173.653 617.384C192.156 649.822 226.084 668.069 260.922 668.044C277.781 668.056 294.913 663.781 310.553 654.842C337.572 639.445 352.788 611.169 352.75 582.161C352.777 568.125 349.194 553.845 341.783 540.823C337.264 532.914 327.183 530.139 319.272 534.673C311.361 539.18 308.587 549.261 313.109 557.17C317.642 565.119 319.761 573.658 319.761 582.159C319.736 599.791 310.605 616.856 294.208 626.18C283.638 632.214 272.248 635.039 260.922 635.039C237.473 635.027 214.731 622.839 202.302 601.034C194.405 587.178 190.694 572.206 190.694 557.375C190.706 526.633 206.694 496.816 235.291 480.533C253.23 470.298 272.672 465.483 291.895 465.458C331.755 465.495 370.406 486.222 391.556 523.308C404.706 546.383 410.92 571.386 410.92 596.131C410.908 647.369 384.236 697.077 336.558 724.261C307.086 741.058 275.098 748.994 243.483 749.019C178.019 748.981 114.467 714.888 79.7578 653.956C59.8266 619.002 51.0313 583.419 51.0047 548.014C51.0047 507.502 62.6906 467.075 83.6485 429.103C104.605 391.144 134.859 355.741 171.444 325.744C225.814 281.119 293.294 224.067 352.352 173.986C411.345 123.942 462.094 80.7188 482.294 64.2953C494.145 54.6891 505.548 50.9922 515.192 50.9922C525.62 51.0687 534.391 55.075 541.453 63.1016C548.412 71.1641 553.575 83.8391 553.6 101.612C553.627 121.658 546.806 148.033 528.586 179.058C510.389 210.083 480.817 245.653 436.155 283.945C429.233 289.878 428.438 300.291 434.369 307.2C440.302 314.109 450.716 314.919 457.625 308.986C479.597 290.148 498.203 271.784 513.984 253.973C514.203 253.82 514.484 253.769 514.703 253.602C524.103 245.895 532.784 243.161 539.552 243.161C546.459 243.252 551.723 245.666 556.156 250.622C560.509 255.617 564.028 263.797 564.053 276.075C564.08 290.122 559.161 309.372 545.587 332.344C532.016 355.331 509.877 381.964 476.283 410.741C469.373 416.672 468.566 427.087 474.498 433.995C480.431 440.917 490.845 441.727 497.767 435.792C508.772 426.342 518.622 417.056 527.598 407.914C528.125 407.619 528.728 407.528 529.242 407.156C537.1 401.352 544.381 399.272 550.456 399.259C557.403 399.311 563.014 401.816 567.509 406.656C571.939 411.536 575.342 419.1 575.381 430.298C575.406 442.628 570.952 459.347 558.277 479.161Z" fill="white"/>
</svg>
