<svg width="525" height="699" viewBox="0 0 525 699" fill="none" xmlns="http://www.w3.org/2000/svg">
<path d="M507.272 428.169C494.636 447.958 473.833 470.711 442.141 494.814L392.2 533.775C390.517 507.219 383.248 480.586 369.202 455.969C341.989 408.25 292.128 381.464 240.892 381.477C216.12 381.477 190.952 387.744 167.939 400.867C128.709 423.25 106.648 464.252 106.686 506.384C106.673 526.752 111.836 547.477 122.648 566.392C141.152 598.83 175.08 617.077 209.917 617.052C226.777 617.064 243.908 612.789 259.548 603.85C286.567 588.453 301.783 560.177 301.745 531.169C301.772 517.133 298.189 502.853 290.778 489.831C286.259 481.922 276.178 479.147 268.267 483.681C260.356 488.188 257.583 498.269 262.105 506.178C266.637 514.127 268.756 522.666 268.756 531.167C268.731 548.798 259.6 565.864 243.203 575.188C232.633 581.222 221.244 584.047 209.917 584.047C186.469 584.034 163.727 571.847 151.297 550.042C143.4 536.186 139.689 521.214 139.689 506.383C139.702 475.641 155.689 445.823 184.286 429.541C202.225 419.306 221.667 414.491 240.891 414.466C280.75 414.503 319.402 435.23 340.552 472.316C353.702 495.391 359.916 520.394 359.916 545.139C359.903 596.377 333.231 646.084 285.553 673.269C256.081 690.066 224.094 698.002 192.478 698.027C127.014 697.989 63.4625 663.895 28.7531 602.964C8.82187 568.009 0.0265625 532.427 0 497.022C0 456.509 11.6859 416.083 32.6437 378.111C53.6 340.152 83.8547 304.748 120.439 274.752C174.809 230.127 242.289 173.075 301.347 122.994C360.341 72.95 411.089 29.7266 431.289 13.3031C443.141 3.69688 454.544 0 464.188 0C474.616 0.0765625 483.386 4.08281 490.448 12.1094C497.408 20.1719 502.57 32.8469 502.595 50.6203C502.622 70.6656 495.802 97.0406 477.581 128.066C459.384 159.091 429.812 194.661 385.15 232.953C378.228 238.886 377.433 249.298 383.364 256.208C389.297 263.117 399.711 263.927 406.62 257.994C428.592 239.156 447.198 220.792 462.98 202.981C463.198 202.828 463.48 202.777 463.698 202.609C473.098 194.903 481.78 192.169 488.547 192.169C495.455 192.259 500.719 194.673 505.152 199.63C509.505 204.625 513.023 212.805 513.048 225.083C513.075 239.13 508.156 258.38 494.583 281.352C481.011 304.339 458.872 330.972 425.278 359.748C418.369 365.68 417.561 376.095 423.494 383.003C429.427 389.925 439.841 390.734 446.763 384.8C457.767 375.35 467.617 366.064 476.594 356.922C477.12 356.627 477.723 356.536 478.237 356.164C486.095 350.359 493.377 348.28 499.452 348.267C506.398 348.319 512.009 350.823 516.505 355.664C520.934 360.544 524.337 368.108 524.377 379.306C524.402 391.636 519.947 408.355 507.272 428.169Z" fill="white"/>
</svg>
